<svg width="35" height="35" viewBox="0 0 35 35" fill="none" xmlns="http://www.w3.org/2000/svg">
<path d="M11.6667 11.6667L11.6667 10.2084C11.6667 6.98669 14.2784 4.37502 17.5 4.37502V4.37502C20.7217 4.37502 23.3334 6.98669 23.3334 10.2084L23.3334 11.6667" stroke="white" stroke-linecap="round"/>
<path d="M21.875 20.4167V17.5" stroke="white" stroke-linecap="round"/>
<path d="M13.125 20.4167V17.5" stroke="white" stroke-linecap="round"/>
<path d="M5.83331 15.6667C5.83331 13.7811 5.83331 12.8383 6.4191 12.2525C7.00489 11.6667 7.94769 11.6667 9.83331 11.6667H25.1666C27.0523 11.6667 27.9951 11.6667 28.5809 12.2525C29.1666 12.8383 29.1666 13.7811 29.1666 15.6667V22.625C29.1666 26.3963 29.1666 28.2819 27.9951 29.4534C26.8235 30.625 24.9379 30.625 21.1666 30.625H13.8333C10.0621 30.625 8.17646 30.625 7.00489 29.4534C5.83331 28.2819 5.83331 26.3963 5.83331 22.625V15.6667Z" stroke="white"/>
</svg>
