<svg width="77" height="77" viewBox="0 0 77 77" fill="none" xmlns="http://www.w3.org/2000/svg">
<path d="M77 47.5499C77 39.6114 71.1287 33.019 63.5005 31.8853V9.0876H36.3507V31.7125H31.7503V4.56262C30.2158 4.56262 1.5803 4.56262 0.0754395 4.56262V36.2375H61.1626C76.1738 36.8605 76.1621 58.2448 61.1626 58.8623H0.0754395V72.4373H63.4251V63.225C71.0898 62.1238 77 55.5146 77 47.5499ZM40.8756 13.6126H47.5123V18.1375H52.0372V13.6126H58.9755V31.7125H40.8756V13.6126ZM18.1753 9.0876V13.6126H13.6504V9.0876H18.1753ZM4.60041 9.0876H9.12539V18.1375H22.7003V9.0876H27.2253V31.7125H4.60041V9.0876ZM4.60041 67.9123V63.3873H58.9001V67.9123H4.60041Z" fill="#232323"/>
<path d="M77 47.5499C77 39.6114 71.1287 33.019 63.5005 31.8853V9.0876H36.3507V31.7125H31.7503V4.56262C30.2158 4.56262 1.5803 4.56262 0.0754395 4.56262V36.2375H61.1626C76.1738 36.8605 76.1621 58.2448 61.1626 58.8623H0.0754395V72.4373H63.4251V63.225C71.0898 62.1238 77 55.5146 77 47.5499ZM40.8756 13.6126H47.5123V18.1375H52.0372V13.6126H58.9755V31.7125H40.8756V13.6126ZM18.1753 9.0876V13.6126H13.6504V9.0876H18.1753ZM4.60041 9.0876H9.12539V18.1375H22.7003V9.0876H27.2253V31.7125H4.60041V9.0876ZM4.60041 67.9123V63.3873H58.9001V67.9123H4.60041Z" fill="url(#paint0_linear_10_1516)"/>
<path d="M61.0872 54.3374V54.3336C64.9284 54.4179 68.0255 51.3161 68.0255 47.5499C68.0255 43.7824 64.9271 40.6821 61.0872 40.7662V40.7625H0V45.2874H9.58993C9.08525 46.7101 9.05674 48.3088 9.58993 49.8124H0V54.3374H61.0872ZM40.8756 47.5499C40.8756 48.7975 39.8607 49.8124 38.6131 49.8124C35.6116 49.6881 35.6125 45.4113 38.6131 45.2874C39.8607 45.2874 40.8756 46.3024 40.8756 47.5499ZM45.0114 45.2874H54.8397C54.335 46.7101 54.3065 48.3088 54.8397 49.8124H45.0114C45.516 48.3898 45.5446 46.7911 45.0114 45.2874ZM32.2148 49.8124H22.3866C22.8911 48.3898 22.9198 46.7911 22.3866 45.2874H32.2148C31.7101 46.7101 31.6816 48.3088 32.2148 49.8124ZM63.5005 47.5499C63.5005 48.7975 62.4855 49.8124 61.238 49.8124C58.2364 49.6881 58.2373 45.4113 61.238 45.2874C62.4855 45.2874 63.5005 46.3024 63.5005 47.5499ZM13.7258 47.5499C13.7258 46.3024 14.7406 45.2874 15.9882 45.2874C18.9898 45.4117 18.9889 49.6886 15.9882 49.8124C14.7406 49.8124 13.7258 48.7975 13.7258 47.5499Z" fill="#232323"/>
<path d="M61.0872 54.3374V54.3336C64.9284 54.4179 68.0255 51.3161 68.0255 47.5499C68.0255 43.7824 64.9271 40.6821 61.0872 40.7662V40.7625H0V45.2874H9.58993C9.08525 46.7101 9.05674 48.3088 9.58993 49.8124H0V54.3374H61.0872ZM40.8756 47.5499C40.8756 48.7975 39.8607 49.8124 38.6131 49.8124C35.6116 49.6881 35.6125 45.4113 38.6131 45.2874C39.8607 45.2874 40.8756 46.3024 40.8756 47.5499ZM45.0114 45.2874H54.8397C54.335 46.7101 54.3065 48.3088 54.8397 49.8124H45.0114C45.516 48.3898 45.5446 46.7911 45.0114 45.2874ZM32.2148 49.8124H22.3866C22.8911 48.3898 22.9198 46.7911 22.3866 45.2874H32.2148C31.7101 46.7101 31.6816 48.3088 32.2148 49.8124ZM63.5005 47.5499C63.5005 48.7975 62.4855 49.8124 61.238 49.8124C58.2364 49.6881 58.2373 45.4113 61.238 45.2874C62.4855 45.2874 63.5005 46.3024 63.5005 47.5499ZM13.7258 47.5499C13.7258 46.3024 14.7406 45.2874 15.9882 45.2874C18.9898 45.4117 18.9889 49.6886 15.9882 49.8124C14.7406 49.8124 13.7258 48.7975 13.7258 47.5499Z" fill="url(#paint1_linear_10_1516)"/>
<defs>
<linearGradient id="paint0_linear_10_1516" x1="-6.14301" y1="-7.18489" x2="85.3495" y2="-3.79516" gradientUnits="userSpaceOnUse">
<stop stop-color="#CEB590"/>
<stop offset="0.781455" stop-color="#F4C174"/>
<stop offset="1" stop-color="#FFC46C"/>
</linearGradient>
<linearGradient id="paint1_linear_10_1516" x1="-5.49907" y1="38.4129" x2="73.4027" y2="51.3383" gradientUnits="userSpaceOnUse">
<stop stop-color="#CEB590"/>
<stop offset="0.781455" stop-color="#F4C174"/>
<stop offset="1" stop-color="#FFC46C"/>
</linearGradient>
</defs>
</svg>
