<svg width="77" height="77" viewBox="0 0 77 77" fill="none" xmlns="http://www.w3.org/2000/svg">
<g clip-path="url(#clip0_10_1520)">
<path d="M69.8811 16.2764C69.8798 16.2515 69.877 16.2267 69.8728 16.2021C69.7766 16.0646 69.6583 15.9463 69.5592 15.8115C68.8403 14.8322 68.0792 13.8896 67.2761 12.9836C67.0561 12.7361 66.8359 12.4912 66.6104 12.2492C65.7834 11.3635 64.9159 10.5189 64.0082 9.71574C63.8404 9.56713 63.6836 9.41321 63.5158 9.26734C61.2786 7.35076 58.829 5.69675 56.2152 4.33801C56.1106 4.28304 56.0007 4.2363 55.8933 4.18118C54.7293 3.58965 53.5358 3.05792 52.3172 2.58841C52.0421 2.48945 51.7918 2.3958 51.5305 2.31328C50.4468 1.92274 49.3464 1.58072 48.2296 1.28721C47.8995 1.19921 47.5694 1.10847 47.2338 1.03142C46.1335 0.775631 45.0332 0.580282 43.9081 0.420715C43.567 0.371233 43.2314 0.30515 42.8875 0.263888C39.9896 -0.0882881 37.0599 -0.0882881 34.1619 0.263888C33.8181 0.30515 33.4825 0.371233 33.1413 0.420715C32.0163 0.580282 30.9049 0.775631 29.8155 1.03142C29.48 1.10847 29.1499 1.19921 28.8198 1.28721C27.6956 1.58056 26.5954 1.92258 25.5188 2.31328C25.2437 2.40676 24.9934 2.50041 24.7321 2.58841C23.5138 3.05792 22.3201 3.58949 21.156 4.18118C21.0487 4.23614 20.9388 4.28288 20.8342 4.33801C18.2116 5.69529 15.7538 7.34915 13.5087 9.26734C13.341 9.41305 13.1841 9.56713 13.0163 9.71574C12.0994 10.5226 11.2319 11.3672 10.4141 12.2492C10.1886 12.4912 9.96846 12.7361 9.74845 12.9836C8.94336 13.8877 8.18227 14.8303 7.46535 15.8114C7.36638 15.9461 7.24808 16.0644 7.15169 16.2019C7.13912 16.2259 7.128 16.2507 7.11865 16.2762C-2.3693 29.573 -2.3693 47.4268 7.11865 60.7234C7.128 60.7489 7.13896 60.7737 7.15169 60.7977C7.24792 60.9352 7.36622 61.0535 7.46535 61.1882C8.18243 62.1675 8.94336 63.1101 9.74845 64.0161C9.96846 64.2637 10.1886 64.5085 10.4141 64.7506C11.2431 65.6363 12.1104 66.4809 13.0163 67.284C13.1841 67.4326 13.341 67.5865 13.5087 67.7324C15.7459 69.649 18.1955 71.303 20.8093 72.6618C20.914 72.7167 21.0239 72.7635 21.1312 72.8186C22.2953 73.4101 23.4888 73.9418 24.7073 74.4113C24.9824 74.5103 25.2327 74.604 25.494 74.6865C26.5778 75.077 27.6781 75.419 28.795 75.7125C29.1251 75.8005 29.4551 75.8913 29.7907 75.9683C30.8911 76.2241 31.9913 76.4195 33.1165 76.579C33.4575 76.6285 33.7931 76.6946 34.1371 76.7359C37.0349 77.088 39.9647 77.088 42.8626 76.7359C43.2064 76.6946 43.542 76.6285 43.8832 76.579C45.0083 76.4195 46.1196 76.2241 47.209 75.9683C47.5446 75.8913 47.8747 75.8005 48.2048 75.7125C49.3308 75.4192 50.4311 75.0772 51.5057 74.6865C51.7808 74.593 52.0312 74.4994 52.2924 74.4113C53.5108 73.9418 54.7045 73.4103 55.8685 72.8186C55.9758 72.7636 56.0858 72.7169 56.1904 72.6618C58.8042 71.3028 61.2538 69.649 63.491 67.7324C63.6588 67.5865 63.8156 67.4326 63.9834 67.284C64.9003 66.4789 65.7678 65.6345 66.5856 64.7506C66.8111 64.5085 67.0313 64.2637 67.2513 64.0161C68.0564 63.1101 68.8174 62.1675 69.5344 61.1882C69.6333 61.0535 69.7516 60.9352 69.848 60.7977C69.8606 60.7737 69.8717 60.7489 69.8811 60.7234C79.369 47.4269 79.369 29.5731 69.8811 16.2764ZM66.7424 21.481C69.3732 25.8136 70.9618 30.698 71.3829 35.7494H54.9058C54.704 32.4716 54.1882 29.221 53.3654 26.0419C58.0197 25.1702 62.5249 23.6342 66.7424 21.481ZM45.5118 6.24975C45.6659 6.28553 45.8143 6.33501 45.9684 6.3708C46.9532 6.60193 47.9298 6.86594 48.8843 7.19603C49.0302 7.24551 49.1731 7.30338 49.3162 7.3556C50.2625 7.68569 51.195 8.05157 52.1084 8.45597C52.2679 8.53027 52.4247 8.61279 52.5843 8.6871C53.459 9.10342 54.3136 9.5536 55.148 10.0378L55.6981 10.3706C56.4903 10.8548 57.2606 11.3728 58.0088 11.9249C58.2014 12.0651 58.3938 12.2 58.5837 12.3539C59.3172 12.904 60.0197 13.4936 60.6908 14.1227C60.8668 14.2823 61.0485 14.4391 61.2217 14.6041C61.9259 15.2725 62.5971 15.9795 63.2463 16.7112C63.3288 16.8075 63.4168 16.8955 63.4993 16.9864C59.7747 18.7614 55.8288 20.0289 51.7673 20.7549C49.8857 15.5823 47.4002 10.6499 44.3623 6.0602C44.7442 6.12887 45.1349 6.16739 45.5118 6.24975ZM27.6096 35.7492C27.8266 32.7729 28.3333 29.8247 29.1226 26.9467C32.2393 27.317 35.3752 27.5005 38.5139 27.4968C41.6554 27.4959 44.7942 27.3076 47.9133 26.9329C48.7012 29.8156 49.2052 32.7684 49.418 35.7492H27.6096ZM49.418 41.2509C49.201 44.2272 48.6943 47.1753 47.905 50.0533C44.7883 49.6831 41.6524 49.4995 38.5137 49.5032C35.3723 49.4997 32.2337 49.6833 29.1143 50.0533C28.3272 47.1752 27.8234 44.2271 27.6095 41.2509H49.418ZM38.5137 7.2842C41.6441 11.721 44.2188 16.5249 46.1802 21.5883C43.6337 21.8588 41.0747 21.9947 38.5137 21.9955C35.9557 21.9924 33.3994 21.8557 30.8555 21.5856C32.8193 16.5256 35.3909 11.7232 38.5137 7.2842ZM13.7842 16.7083C14.4307 15.9766 15.1046 15.2696 15.8088 14.6012C15.982 14.4362 16.1637 14.2794 16.3397 14.1198C17.0183 13.5018 17.7207 12.9122 18.4468 12.351C18.6367 12.2051 18.8291 12.0759 19.0217 11.922C19.7699 11.3719 20.5402 10.8537 21.3324 10.3677L21.8825 10.0349C22.7169 9.54715 23.5715 9.09682 24.4462 8.6842C24.6058 8.60989 24.7626 8.52737 24.9221 8.45307C25.8354 8.04045 26.768 7.67457 27.7143 7.3527C27.8572 7.30048 27.9894 7.24261 28.1461 7.19313C29.1006 6.874 30.0717 6.60999 31.0619 6.36789C31.216 6.33211 31.3645 6.28263 31.5213 6.24959C31.8981 6.16707 32.2888 6.12854 32.6712 6.05972C29.632 10.6503 27.1456 15.5836 25.2632 20.7571C21.2017 20.0312 17.2557 18.7637 13.5312 16.9886C13.6137 16.8926 13.7017 16.8046 13.7842 16.7083ZM10.2852 21.481C14.5018 23.634 19.0059 25.1701 23.6595 26.0419C22.8376 29.2211 22.3227 32.4718 22.1218 35.7494H5.64467C6.06599 30.698 7.65457 25.8136 10.2852 21.481ZM10.2852 55.5192C7.65441 51.1866 6.06583 46.3022 5.64467 41.2509H22.1218C22.3236 44.5286 22.8394 47.7793 23.6622 50.9584C19.0079 51.8299 14.5027 53.3659 10.2852 55.5192ZM31.5158 70.7503C31.3617 70.7145 31.2133 70.6651 31.0592 70.6293C30.0744 70.3982 29.0978 70.1341 28.1433 69.804C27.9974 69.7546 27.8545 69.6967 27.7114 69.6445C26.7651 69.3144 25.8327 68.9485 24.9193 68.5441C24.7597 68.4698 24.6029 68.3873 24.4433 68.313C23.5686 67.8967 22.714 67.4465 21.8796 66.9623L21.3295 66.6295C20.5373 66.1453 19.767 65.6273 19.0188 65.0752C18.8262 64.935 18.6338 64.8001 18.4439 64.6462C17.7104 64.0961 17.0079 63.5065 16.3368 62.8774C16.1608 62.7178 15.9791 62.561 15.8059 62.3959C15.1017 61.7275 14.4305 61.0206 13.7813 60.2888C13.6988 60.1926 13.6108 60.1046 13.5283 60.0137C17.2529 58.2387 21.1988 56.9711 25.2603 56.2452C27.1419 61.4177 29.6274 66.3501 32.6653 70.9399C32.2832 70.8714 31.8927 70.8328 31.5158 70.7503ZM38.5137 69.716C35.3833 65.2793 32.8086 60.4753 30.8472 55.4119C35.9416 54.8636 41.0802 54.8636 46.1746 55.4119L46.1718 55.4146C44.2083 60.4745 41.6367 65.2769 38.5137 69.716ZM63.2434 60.2917C62.5969 61.0235 61.923 61.7304 61.2188 62.3988C61.0456 62.5639 60.8639 62.7207 60.6879 62.8803C60.0093 63.5002 59.3069 64.0898 58.5808 64.6491C58.3909 64.7948 58.1985 64.9379 58.0059 65.0781C57.2577 65.6282 56.4874 66.1464 55.6952 66.6324L55.1451 66.9652C54.3125 67.4512 53.4579 67.9013 52.5814 68.3159C52.4218 68.3902 52.265 68.4727 52.1055 68.547C51.1922 68.9596 50.2596 69.3255 49.3134 69.6474C49.1704 69.6996 49.0382 69.7575 48.8815 69.8069C47.927 70.1261 46.9559 70.3901 45.9657 70.6322C45.8116 70.668 45.6631 70.7174 45.5063 70.7505C45.1295 70.833 44.7388 70.8715 44.3565 70.9404C47.3944 66.3506 49.8801 61.4182 51.7615 56.2457C55.823 56.9716 59.769 58.2391 63.4935 60.0142C63.4139 60.1075 63.3259 60.1955 63.2434 60.2917ZM66.7424 55.5192C62.5258 53.3662 58.0217 51.8302 53.3681 50.9584C54.19 47.7791 54.7049 44.5285 54.9058 41.2509H71.3829C70.9616 46.3021 69.373 51.1864 66.7424 55.5192Z" fill="#232323"/>
<path d="M69.8811 16.2764C69.8798 16.2515 69.877 16.2267 69.8728 16.2021C69.7766 16.0646 69.6583 15.9463 69.5592 15.8115C68.8403 14.8322 68.0792 13.8896 67.2761 12.9836C67.0561 12.7361 66.8359 12.4912 66.6104 12.2492C65.7834 11.3635 64.9159 10.5189 64.0082 9.71574C63.8404 9.56713 63.6836 9.41321 63.5158 9.26734C61.2786 7.35076 58.829 5.69675 56.2152 4.33801C56.1106 4.28304 56.0007 4.2363 55.8933 4.18118C54.7293 3.58965 53.5358 3.05792 52.3172 2.58841C52.0421 2.48945 51.7918 2.3958 51.5305 2.31328C50.4468 1.92274 49.3464 1.58072 48.2296 1.28721C47.8995 1.19921 47.5694 1.10847 47.2338 1.03142C46.1335 0.775631 45.0332 0.580282 43.9081 0.420715C43.567 0.371233 43.2314 0.30515 42.8875 0.263888C39.9896 -0.0882881 37.0599 -0.0882881 34.1619 0.263888C33.8181 0.30515 33.4825 0.371233 33.1413 0.420715C32.0163 0.580282 30.9049 0.775631 29.8155 1.03142C29.48 1.10847 29.1499 1.19921 28.8198 1.28721C27.6956 1.58056 26.5954 1.92258 25.5188 2.31328C25.2437 2.40676 24.9934 2.50041 24.7321 2.58841C23.5138 3.05792 22.3201 3.58949 21.156 4.18118C21.0487 4.23614 20.9388 4.28288 20.8342 4.33801C18.2116 5.69529 15.7538 7.34915 13.5087 9.26734C13.341 9.41305 13.1841 9.56713 13.0163 9.71574C12.0994 10.5226 11.2319 11.3672 10.4141 12.2492C10.1886 12.4912 9.96846 12.7361 9.74845 12.9836C8.94336 13.8877 8.18227 14.8303 7.46535 15.8114C7.36638 15.9461 7.24808 16.0644 7.15169 16.2019C7.13912 16.2259 7.128 16.2507 7.11865 16.2762C-2.3693 29.573 -2.3693 47.4268 7.11865 60.7234C7.128 60.7489 7.13896 60.7737 7.15169 60.7977C7.24792 60.9352 7.36622 61.0535 7.46535 61.1882C8.18243 62.1675 8.94336 63.1101 9.74845 64.0161C9.96846 64.2637 10.1886 64.5085 10.4141 64.7506C11.2431 65.6363 12.1104 66.4809 13.0163 67.284C13.1841 67.4326 13.341 67.5865 13.5087 67.7324C15.7459 69.649 18.1955 71.303 20.8093 72.6618C20.914 72.7167 21.0239 72.7635 21.1312 72.8186C22.2953 73.4101 23.4888 73.9418 24.7073 74.4113C24.9824 74.5103 25.2327 74.604 25.494 74.6865C26.5778 75.077 27.6781 75.419 28.795 75.7125C29.1251 75.8005 29.4551 75.8913 29.7907 75.9683C30.8911 76.2241 31.9913 76.4195 33.1165 76.579C33.4575 76.6285 33.7931 76.6946 34.1371 76.7359C37.0349 77.088 39.9647 77.088 42.8626 76.7359C43.2064 76.6946 43.542 76.6285 43.8832 76.579C45.0083 76.4195 46.1196 76.2241 47.209 75.9683C47.5446 75.8913 47.8747 75.8005 48.2048 75.7125C49.3308 75.4192 50.4311 75.0772 51.5057 74.6865C51.7808 74.593 52.0312 74.4994 52.2924 74.4113C53.5108 73.9418 54.7045 73.4103 55.8685 72.8186C55.9758 72.7636 56.0858 72.7169 56.1904 72.6618C58.8042 71.3028 61.2538 69.649 63.491 67.7324C63.6588 67.5865 63.8156 67.4326 63.9834 67.284C64.9003 66.4789 65.7678 65.6345 66.5856 64.7506C66.8111 64.5085 67.0313 64.2637 67.2513 64.0161C68.0564 63.1101 68.8174 62.1675 69.5344 61.1882C69.6333 61.0535 69.7516 60.9352 69.848 60.7977C69.8606 60.7737 69.8717 60.7489 69.8811 60.7234C79.369 47.4269 79.369 29.5731 69.8811 16.2764ZM66.7424 21.481C69.3732 25.8136 70.9618 30.698 71.3829 35.7494H54.9058C54.704 32.4716 54.1882 29.221 53.3654 26.0419C58.0197 25.1702 62.5249 23.6342 66.7424 21.481ZM45.5118 6.24975C45.6659 6.28553 45.8143 6.33501 45.9684 6.3708C46.9532 6.60193 47.9298 6.86594 48.8843 7.19603C49.0302 7.24551 49.1731 7.30338 49.3162 7.3556C50.2625 7.68569 51.195 8.05157 52.1084 8.45597C52.2679 8.53027 52.4247 8.61279 52.5843 8.6871C53.459 9.10342 54.3136 9.5536 55.148 10.0378L55.6981 10.3706C56.4903 10.8548 57.2606 11.3728 58.0088 11.9249C58.2014 12.0651 58.3938 12.2 58.5837 12.3539C59.3172 12.904 60.0197 13.4936 60.6908 14.1227C60.8668 14.2823 61.0485 14.4391 61.2217 14.6041C61.9259 15.2725 62.5971 15.9795 63.2463 16.7112C63.3288 16.8075 63.4168 16.8955 63.4993 16.9864C59.7747 18.7614 55.8288 20.0289 51.7673 20.7549C49.8857 15.5823 47.4002 10.6499 44.3623 6.0602C44.7442 6.12887 45.1349 6.16739 45.5118 6.24975ZM27.6096 35.7492C27.8266 32.7729 28.3333 29.8247 29.1226 26.9467C32.2393 27.317 35.3752 27.5005 38.5139 27.4968C41.6554 27.4959 44.7942 27.3076 47.9133 26.9329C48.7012 29.8156 49.2052 32.7684 49.418 35.7492H27.6096ZM49.418 41.2509C49.201 44.2272 48.6943 47.1753 47.905 50.0533C44.7883 49.6831 41.6524 49.4995 38.5137 49.5032C35.3723 49.4997 32.2337 49.6833 29.1143 50.0533C28.3272 47.1752 27.8234 44.2271 27.6095 41.2509H49.418ZM38.5137 7.2842C41.6441 11.721 44.2188 16.5249 46.1802 21.5883C43.6337 21.8588 41.0747 21.9947 38.5137 21.9955C35.9557 21.9924 33.3994 21.8557 30.8555 21.5856C32.8193 16.5256 35.3909 11.7232 38.5137 7.2842ZM13.7842 16.7083C14.4307 15.9766 15.1046 15.2696 15.8088 14.6012C15.982 14.4362 16.1637 14.2794 16.3397 14.1198C17.0183 13.5018 17.7207 12.9122 18.4468 12.351C18.6367 12.2051 18.8291 12.0759 19.0217 11.922C19.7699 11.3719 20.5402 10.8537 21.3324 10.3677L21.8825 10.0349C22.7169 9.54715 23.5715 9.09682 24.4462 8.6842C24.6058 8.60989 24.7626 8.52737 24.9221 8.45307C25.8354 8.04045 26.768 7.67457 27.7143 7.3527C27.8572 7.30048 27.9894 7.24261 28.1461 7.19313C29.1006 6.874 30.0717 6.60999 31.0619 6.36789C31.216 6.33211 31.3645 6.28263 31.5213 6.24959C31.8981 6.16707 32.2888 6.12854 32.6712 6.05972C29.632 10.6503 27.1456 15.5836 25.2632 20.7571C21.2017 20.0312 17.2557 18.7637 13.5312 16.9886C13.6137 16.8926 13.7017 16.8046 13.7842 16.7083ZM10.2852 21.481C14.5018 23.634 19.0059 25.1701 23.6595 26.0419C22.8376 29.2211 22.3227 32.4718 22.1218 35.7494H5.64467C6.06599 30.698 7.65457 25.8136 10.2852 21.481ZM10.2852 55.5192C7.65441 51.1866 6.06583 46.3022 5.64467 41.2509H22.1218C22.3236 44.5286 22.8394 47.7793 23.6622 50.9584C19.0079 51.8299 14.5027 53.3659 10.2852 55.5192ZM31.5158 70.7503C31.3617 70.7145 31.2133 70.6651 31.0592 70.6293C30.0744 70.3982 29.0978 70.1341 28.1433 69.804C27.9974 69.7546 27.8545 69.6967 27.7114 69.6445C26.7651 69.3144 25.8327 68.9485 24.9193 68.5441C24.7597 68.4698 24.6029 68.3873 24.4433 68.313C23.5686 67.8967 22.714 67.4465 21.8796 66.9623L21.3295 66.6295C20.5373 66.1453 19.767 65.6273 19.0188 65.0752C18.8262 64.935 18.6338 64.8001 18.4439 64.6462C17.7104 64.0961 17.0079 63.5065 16.3368 62.8774C16.1608 62.7178 15.9791 62.561 15.8059 62.3959C15.1017 61.7275 14.4305 61.0206 13.7813 60.2888C13.6988 60.1926 13.6108 60.1046 13.5283 60.0137C17.2529 58.2387 21.1988 56.9711 25.2603 56.2452C27.1419 61.4177 29.6274 66.3501 32.6653 70.9399C32.2832 70.8714 31.8927 70.8328 31.5158 70.7503ZM38.5137 69.716C35.3833 65.2793 32.8086 60.4753 30.8472 55.4119C35.9416 54.8636 41.0802 54.8636 46.1746 55.4119L46.1718 55.4146C44.2083 60.4745 41.6367 65.2769 38.5137 69.716ZM63.2434 60.2917C62.5969 61.0235 61.923 61.7304 61.2188 62.3988C61.0456 62.5639 60.8639 62.7207 60.6879 62.8803C60.0093 63.5002 59.3069 64.0898 58.5808 64.6491C58.3909 64.7948 58.1985 64.9379 58.0059 65.0781C57.2577 65.6282 56.4874 66.1464 55.6952 66.6324L55.1451 66.9652C54.3125 67.4512 53.4579 67.9013 52.5814 68.3159C52.4218 68.3902 52.265 68.4727 52.1055 68.547C51.1922 68.9596 50.2596 69.3255 49.3134 69.6474C49.1704 69.6996 49.0382 69.7575 48.8815 69.8069C47.927 70.1261 46.9559 70.3901 45.9657 70.6322C45.8116 70.668 45.6631 70.7174 45.5063 70.7505C45.1295 70.833 44.7388 70.8715 44.3565 70.9404C47.3944 66.3506 49.8801 61.4182 51.7615 56.2457C55.823 56.9716 59.769 58.2391 63.4935 60.0142C63.4139 60.1075 63.3259 60.1955 63.2434 60.2917ZM66.7424 55.5192C62.5258 53.3662 58.0217 51.8302 53.3681 50.9584C54.19 47.7791 54.7049 44.5285 54.9058 41.2509H71.3829C70.9616 46.3021 69.373 51.1864 66.7424 55.5192Z" fill="url(#paint0_linear_10_1520)"/>
</g>
<defs>
<linearGradient id="paint0_linear_10_1520" x1="-6.22141" y1="-13.3272" x2="85.3819" y2="-10.3329" gradientUnits="userSpaceOnUse">
<stop stop-color="#CEB590"/>
<stop offset="0.781455" stop-color="#F4C174"/>
<stop offset="1" stop-color="#FFC46C"/>
</linearGradient>
<clipPath id="clip0_10_1520">
<rect width="77" height="77" fill="white"/>
</clipPath>
</defs>
</svg>
