<svg width="77" height="77" viewBox="0 0 77 77" fill="none" xmlns="http://www.w3.org/2000/svg">
<path d="M61.209 35.2362V13.084H64.9688C66.2146 13.084 67.2246 12.074 67.2246 10.8281V2.25586C67.2246 1.01002 66.2146 0 64.9688 0H12.0312C10.7854 0 9.77539 1.01002 9.77539 2.25586V10.8281C9.77539 12.074 10.7854 13.084 12.0312 13.084H15.791V35.2362C9.64771 36.3084 4.96289 41.6796 4.96289 48.125C4.96289 49.3708 5.97291 50.3809 7.21875 50.3809H9.77915C9.69749 55.0389 13.4586 58.8027 18.0469 58.8027C22.6323 58.8027 26.3963 55.0419 26.3146 50.3809H28.875C30.1208 50.3809 31.1309 49.3708 31.1309 48.125C31.1309 41.6796 26.446 36.3084 20.3027 35.2362V13.084H36.2441V53.4335C30.1008 54.5056 25.416 59.8768 25.416 66.3223C25.416 67.5681 26.426 68.5781 27.6719 68.5781H30.2323C30.1506 73.2362 33.9117 77 38.5 77C43.0854 77 46.8494 73.2392 46.7677 68.5781H49.3281C50.574 68.5781 51.584 67.5681 51.584 66.3223C51.584 59.8768 46.8992 54.5056 40.7559 53.4335V13.084H56.6973V35.2362C50.554 36.3084 45.8691 41.6796 45.8691 48.125C45.8691 49.3708 46.8792 50.3809 48.125 50.3809H50.6854C50.6037 55.0389 54.3649 58.8027 58.9531 58.8027C63.5385 58.8027 67.3025 55.0419 67.2209 50.3809H69.7812C71.0271 50.3809 72.0371 49.3708 72.0371 48.125C72.0371 41.6796 67.3523 36.3084 61.209 35.2362ZM18.0469 54.291C15.9265 54.291 14.2059 52.5254 14.2909 50.3809H21.8027C21.8879 52.5248 20.1677 54.291 18.0469 54.291ZM26.3179 45.8691H9.77584C10.7686 42.2331 14.1005 39.5527 18.0469 39.5527C21.9933 39.5527 25.3252 42.2331 26.3179 45.8691ZM38.5 72.4883C36.3796 72.4883 34.659 70.7227 34.744 68.5781H42.2559C42.341 70.7221 40.6208 72.4883 38.5 72.4883ZM46.771 64.0664H30.229C31.2217 60.4304 34.5536 57.75 38.5 57.75C42.4464 57.75 45.7783 60.4304 46.771 64.0664ZM14.2871 4.51172H62.7129V8.57227H14.2871V4.51172ZM58.9531 54.291C56.8328 54.291 55.1121 52.5254 55.1971 50.3809H62.709C62.7941 52.5248 61.0739 54.291 58.9531 54.291ZM50.6821 45.8691C51.6748 42.2331 55.0067 39.5527 58.9531 39.5527C62.8995 39.5527 66.2314 42.2331 67.2242 45.8691H50.6821Z" fill="#232323"/>
<path d="M61.209 35.2362V13.084H64.9688C66.2146 13.084 67.2246 12.074 67.2246 10.8281V2.25586C67.2246 1.01002 66.2146 0 64.9688 0H12.0312C10.7854 0 9.77539 1.01002 9.77539 2.25586V10.8281C9.77539 12.074 10.7854 13.084 12.0312 13.084H15.791V35.2362C9.64771 36.3084 4.96289 41.6796 4.96289 48.125C4.96289 49.3708 5.97291 50.3809 7.21875 50.3809H9.77915C9.69749 55.0389 13.4586 58.8027 18.0469 58.8027C22.6323 58.8027 26.3963 55.0419 26.3146 50.3809H28.875C30.1208 50.3809 31.1309 49.3708 31.1309 48.125C31.1309 41.6796 26.446 36.3084 20.3027 35.2362V13.084H36.2441V53.4335C30.1008 54.5056 25.416 59.8768 25.416 66.3223C25.416 67.5681 26.426 68.5781 27.6719 68.5781H30.2323C30.1506 73.2362 33.9117 77 38.5 77C43.0854 77 46.8494 73.2392 46.7677 68.5781H49.3281C50.574 68.5781 51.584 67.5681 51.584 66.3223C51.584 59.8768 46.8992 54.5056 40.7559 53.4335V13.084H56.6973V35.2362C50.554 36.3084 45.8691 41.6796 45.8691 48.125C45.8691 49.3708 46.8792 50.3809 48.125 50.3809H50.6854C50.6037 55.0389 54.3649 58.8027 58.9531 58.8027C63.5385 58.8027 67.3025 55.0419 67.2209 50.3809H69.7812C71.0271 50.3809 72.0371 49.3708 72.0371 48.125C72.0371 41.6796 67.3523 36.3084 61.209 35.2362ZM18.0469 54.291C15.9265 54.291 14.2059 52.5254 14.2909 50.3809H21.8027C21.8879 52.5248 20.1677 54.291 18.0469 54.291ZM26.3179 45.8691H9.77584C10.7686 42.2331 14.1005 39.5527 18.0469 39.5527C21.9933 39.5527 25.3252 42.2331 26.3179 45.8691ZM38.5 72.4883C36.3796 72.4883 34.659 70.7227 34.744 68.5781H42.2559C42.341 70.7221 40.6208 72.4883 38.5 72.4883ZM46.771 64.0664H30.229C31.2217 60.4304 34.5536 57.75 38.5 57.75C42.4464 57.75 45.7783 60.4304 46.771 64.0664ZM14.2871 4.51172H62.7129V8.57227H14.2871V4.51172ZM58.9531 54.291C56.8328 54.291 55.1121 52.5254 55.1971 50.3809H62.709C62.7941 52.5248 61.0739 54.291 58.9531 54.291ZM50.6821 45.8691C51.6748 42.2331 55.0067 39.5527 58.9531 39.5527C62.8995 39.5527 66.2314 42.2331 67.2242 45.8691H50.6821Z" fill="url(#paint0_linear_10_1513)"/>
<defs>
<linearGradient id="paint0_linear_10_1513" x1="-0.459277" y1="-13.3269" x2="79.3622" y2="-11.0539" gradientUnits="userSpaceOnUse">
<stop stop-color="#CEB590"/>
<stop offset="0.781455" stop-color="#F4C174"/>
<stop offset="1" stop-color="#FFC46C"/>
</linearGradient>
</defs>
</svg>
