<svg width="284" height="68" viewBox="0 0 284 68" fill="none" xmlns="http://www.w3.org/2000/svg">
<path d="M103.75 35.7177H87.8784V11.2574H92.6537V31.4578H103.75V35.7177Z" fill="black"/>
<path d="M123.442 28.5033C123.442 30.8165 122.594 32.6373 120.9 33.9656C119.205 35.2711 117.029 35.9238 114.372 35.9238C112.426 35.9238 110.742 35.6833 109.322 35.2024C107.902 34.6985 106.608 33.8626 105.44 32.6945L108.532 29.6026C109.906 30.9768 111.864 31.6639 114.407 31.6639C115.827 31.6639 116.903 31.4005 117.636 30.8737C118.392 30.347 118.77 29.5912 118.77 28.6063C118.77 27.7589 118.518 27.0833 118.014 26.5794C117.579 26.1672 116.846 25.8924 115.815 25.7549L112.895 25.3083C110.834 25.0106 109.254 24.335 108.154 23.2814C106.986 22.1363 106.402 20.5331 106.402 18.4718C106.402 16.2502 107.169 14.4638 108.704 13.1125C110.238 11.7384 112.311 11.0513 114.922 11.0513C118.22 11.0513 120.854 12.0017 122.824 13.9027L119.8 16.8915C118.655 15.7693 116.983 15.2081 114.785 15.2081C113.571 15.2081 112.643 15.5059 112.002 16.1014C111.361 16.6739 111.04 17.4068 111.04 18.3C111.04 19.0329 111.269 19.617 111.727 20.0521C112.254 20.5331 112.998 20.8423 113.96 20.9797L116.88 21.4263C118.964 21.724 120.522 22.3653 121.552 23.3501C122.812 24.5182 123.442 26.2359 123.442 28.5033Z" fill="black"/>
<path d="M147.724 35.7177H142.159L135.872 24.5869L132.711 28.3659V35.7177H127.936V11.2574H132.711V21.9072L141.334 11.2574H147.14L139.033 20.9797L147.724 35.7177Z" fill="black"/>
<path d="M175.583 16.8915C175.858 18.1283 175.995 20.3269 175.995 23.4875C175.995 26.6481 175.858 28.8583 175.583 30.1179C175.308 31.3547 174.632 32.5113 173.556 33.5877C171.999 35.1451 170.018 35.9238 167.613 35.9238C165.46 35.9238 163.639 35.2825 162.15 34C160.662 32.7174 159.711 30.9768 159.299 28.7781H161.12C161.486 30.4729 162.242 31.8128 163.387 32.7976C164.555 33.7824 165.964 34.2748 167.613 34.2748C169.445 34.2748 170.991 33.645 172.251 32.3853C173.052 31.6066 173.567 30.6676 173.797 29.5683C174.026 28.446 174.14 26.6596 174.14 24.209H164.315V22.56H174.14C174.14 20.201 174.014 18.4833 173.762 17.4068C173.533 16.3075 173.029 15.3685 172.251 14.5898C170.991 13.3301 169.445 12.7003 167.613 12.7003C165.964 12.7003 164.567 13.1927 163.421 14.1775C162.299 15.1623 161.555 16.5022 161.188 18.197H159.299C159.711 15.9754 160.65 14.2348 162.116 12.9751C163.605 11.6926 165.437 11.0513 167.613 11.0513C170.018 11.0513 171.999 11.83 173.556 13.3874C174.632 14.4638 175.308 15.6319 175.583 16.8915Z" fill="black"/>
<path d="M199.032 35.7177H197.177V24.209H184.431V35.7177H182.576V11.2574H184.431V22.56H197.177V11.2574H199.032V35.7177Z" fill="black"/>
<path d="M221.438 35.7177H206.597V11.2574H221.438V12.9064H208.452V22.56H219.514V24.209H208.452V34.0687H221.438V35.7177Z" fill="black"/>
<path d="M241.421 13.1469C242.795 14.4065 243.482 16.1243 243.482 18.3C243.482 20.4758 242.795 22.1935 241.421 23.4532C240.046 24.7129 238.271 25.3427 236.096 25.3427H228.984V35.7177H227.129V11.2574H236.096C238.271 11.2574 240.046 11.8872 241.421 13.1469ZM240.081 22.3539C241.111 21.4377 241.627 20.0865 241.627 18.3C241.627 16.5136 241.111 15.1738 240.081 14.2806C239.05 13.3645 237.653 12.9064 235.89 12.9064H228.984V23.6937H235.89C237.653 23.6937 239.05 23.2471 240.081 22.3539Z" fill="black"/>
<path d="M263.407 12.9064H250.764V35.7177H248.909V11.2574H263.407V12.9064Z" fill="black"/>
<path d="M281.63 29.4308C281.859 28.2628 281.974 26.2817 281.974 23.4875C281.974 20.6934 281.859 18.7237 281.63 17.5786C281.424 16.4105 280.909 15.4143 280.084 14.5898C278.824 13.3301 277.278 12.7003 275.446 12.7003C273.614 12.7003 272.068 13.3301 270.808 14.5898C269.984 15.4143 269.457 16.4105 269.228 17.5786C269.022 18.7237 268.919 20.6934 268.919 23.4875C268.919 26.2817 269.022 28.2628 269.228 29.4308C269.457 30.576 269.984 31.5608 270.808 32.3853C272.068 33.645 273.614 34.2748 275.446 34.2748C277.278 34.2748 278.824 33.645 280.084 32.3853C280.909 31.5608 281.424 30.576 281.63 29.4308ZM283.416 16.8915C283.691 18.1283 283.829 20.3269 283.829 23.4875C283.829 26.6481 283.691 28.8583 283.416 30.1179C283.142 31.3547 282.466 32.5113 281.39 33.5877C279.832 35.1451 277.851 35.9238 275.446 35.9238C273.041 35.9238 271.06 35.1451 269.503 33.5877C268.426 32.5113 267.751 31.3547 267.476 30.1179C267.201 28.8583 267.064 26.6481 267.064 23.4875C267.064 20.3269 267.201 18.1283 267.476 16.8915C267.751 15.6319 268.426 14.4638 269.503 13.3874C271.06 11.83 273.041 11.0513 275.446 11.0513C277.851 11.0513 279.832 11.83 281.39 13.3874C282.466 14.4638 283.142 15.6319 283.416 16.8915Z" fill="black"/>
<path d="M94.1046 51.3269C93.961 52.1955 93.6138 52.8721 93.0632 53.3565C92.5206 53.8326 91.8543 54.0706 91.0643 54.0706C90.1705 54.0706 89.4364 53.7699 88.8618 53.1686C88.4788 52.7593 88.2394 52.3166 88.1436 51.8405C88.0479 51.3561 88 50.5877 88 49.5353C88 48.4829 88.0479 47.7187 88.1436 47.2426C88.2394 46.7582 88.4788 46.3113 88.8618 45.9021C89.4364 45.3007 90.1705 45 91.0643 45C91.8623 45 92.5286 45.2422 93.0632 45.7267C93.6058 46.2027 93.953 46.8751 94.1046 47.7437H92.7879C92.6922 47.2677 92.4966 46.8918 92.2014 46.6162C91.9061 46.3405 91.5271 46.2027 91.0643 46.2027C90.5536 46.2027 90.1346 46.3865 89.8074 46.754C89.592 46.9879 89.4523 47.2885 89.3885 47.656C89.3247 48.0152 89.2927 48.6416 89.2927 49.5353C89.2927 50.429 89.3247 51.0596 89.3885 51.4271C89.4523 51.7863 89.592 52.0828 89.8074 52.3166C90.1346 52.6841 90.5536 52.8679 91.0643 52.8679C91.5271 52.8679 91.9061 52.7301 92.2014 52.4544C92.5046 52.1788 92.7081 51.803 92.8119 51.3269H94.1046Z" fill="black"/>
<path d="M106.062 53.9954H104.769V47.5182L100.95 53.9954H99.7774V45.0752H101.07V51.5399L104.877 45.0752H106.062V53.9954Z" fill="black"/>
<path d="M118.031 51.3269C117.887 52.1955 117.54 52.8721 116.989 53.3565C116.447 53.8326 115.78 54.0706 114.99 54.0706C114.097 54.0706 113.362 53.7699 112.788 53.1686C112.405 52.7593 112.165 52.3166 112.07 51.8405C111.974 51.3561 111.926 50.5877 111.926 49.5353C111.926 48.4829 111.974 47.7187 112.07 47.2426C112.165 46.7582 112.405 46.3113 112.788 45.9021C113.362 45.3007 114.097 45 114.99 45C115.788 45 116.455 45.2422 116.989 45.7267C117.532 46.2027 117.879 46.8751 118.031 47.7437H116.714C116.618 47.2677 116.423 46.8918 116.127 46.6162C115.832 46.3405 115.453 46.2027 114.99 46.2027C114.48 46.2027 114.061 46.3865 113.733 46.754C113.518 46.9879 113.378 47.2885 113.315 47.656C113.251 48.0152 113.219 48.6416 113.219 49.5353C113.219 50.429 113.251 51.0596 113.315 51.4271C113.378 51.7863 113.518 52.0828 113.733 52.3166C114.061 52.6841 114.48 52.8679 114.99 52.8679C115.453 52.8679 115.832 52.7301 116.127 52.4544C116.431 52.1788 116.634 51.803 116.738 51.3269H118.031Z" fill="black"/>
<path d="M128.7 46.2904H126.354V53.9954H125.062V46.2904H122.716V45.0752H128.7V46.2904Z" fill="black"/>
<path d="M139.576 53.9954H134.118V45.0752H139.576V46.2904H135.41V48.8964H138.953V50.0991H135.41V52.7802H139.576V53.9954Z" fill="black"/>
<path d="M152.797 53.9954H151.492V48.0319L149.529 52.3793H148.572L146.573 48.0319V53.9954H145.28V45.0752H146.561L149.05 50.6253L151.504 45.0752H152.797V53.9954Z" fill="black"/>
<path d="M167.262 53.9954H165.969V45.0752H167.262V53.9954ZM164.198 49.3349C164.693 49.836 164.94 50.4875 164.94 51.2893C164.94 52.0911 164.689 52.7426 164.186 53.2437C163.691 53.7449 163.041 53.9954 162.235 53.9954H158.967V45.0752H160.26V48.5831H162.235C163.049 48.5831 163.703 48.8337 164.198 49.3349ZM163.635 51.2893C163.635 50.8299 163.5 50.4666 163.228 50.1993C162.965 49.932 162.598 49.7984 162.127 49.7984H160.26V52.7802H162.127C162.598 52.7802 162.965 52.6507 163.228 52.3918C163.5 52.1245 163.635 51.757 163.635 51.2893Z" fill="black"/>
<path d="M185.937 47.2301C186.032 47.7062 186.08 48.4746 186.08 49.5353C186.08 50.5961 186.032 51.3645 185.937 51.8405C185.849 52.3166 185.61 52.7593 185.219 53.1686C184.644 53.7699 183.91 54.0706 183.016 54.0706C182.122 54.0706 181.388 53.7699 180.814 53.1686C180.423 52.7593 180.179 52.3166 180.083 51.8405C179.996 51.3645 179.952 50.5961 179.952 49.5353C179.952 48.4746 179.996 47.7062 180.083 47.2301C180.179 46.754 180.423 46.3113 180.814 45.9021C181.388 45.3007 182.122 45 183.016 45C183.91 45 184.644 45.3007 185.219 45.9021C185.61 46.3113 185.849 46.754 185.937 47.2301ZM184.692 51.4271C184.756 51.068 184.788 50.4374 184.788 49.5353C184.788 48.6333 184.756 48.0027 184.692 47.6435C184.628 47.276 184.492 46.9795 184.285 46.754C183.95 46.3865 183.527 46.2027 183.016 46.2027C182.505 46.2027 182.082 46.3865 181.747 46.754C181.54 46.9879 181.404 47.2885 181.34 47.656C181.276 48.0152 181.245 48.6416 181.245 49.5353C181.245 50.429 181.276 51.0554 181.34 51.4146C181.404 51.7737 181.54 52.0702 181.747 52.3041C182.09 52.68 182.513 52.8679 183.016 52.8679C183.519 52.8679 183.942 52.68 184.285 52.3041C184.492 52.0786 184.628 51.7863 184.692 51.4271Z" fill="black"/>
<path d="M197.745 51.3269C197.601 52.1955 197.254 52.8721 196.703 53.3565C196.161 53.8326 195.494 54.0706 194.704 54.0706C193.811 54.0706 193.076 53.7699 192.502 53.1686C192.119 52.7593 191.88 52.3166 191.784 51.8405C191.688 51.3561 191.64 50.5877 191.64 49.5353C191.64 48.4829 191.688 47.7187 191.784 47.2426C191.88 46.7582 192.119 46.3113 192.502 45.9021C193.076 45.3007 193.811 45 194.704 45C195.502 45 196.169 45.2422 196.703 45.7267C197.246 46.2027 197.593 46.8751 197.745 47.7437H196.428C196.332 47.2677 196.137 46.8918 195.841 46.6162C195.546 46.3405 195.167 46.2027 194.704 46.2027C194.194 46.2027 193.775 46.3865 193.448 46.754C193.232 46.9879 193.092 47.2885 193.029 47.656C192.965 48.0152 192.933 48.6416 192.933 49.5353C192.933 50.429 192.965 51.0596 193.029 51.4271C193.092 51.7863 193.232 52.0828 193.448 52.3166C193.775 52.6841 194.194 52.8679 194.704 52.8679C195.167 52.8679 195.546 52.7301 195.841 52.4544C196.145 52.1788 196.348 51.803 196.452 51.3269H197.745Z" fill="black"/>
<path d="M209.438 51.4897C209.438 52.2582 209.207 52.8679 208.744 53.3189C208.289 53.7699 207.663 53.9954 206.865 53.9954H203.418V45.0752H206.733C207.507 45.0752 208.13 45.2965 208.6 45.7392C209.071 46.1735 209.307 46.754 209.307 47.4806C209.307 48.3827 208.924 49.03 208.158 49.4226C209.011 49.8402 209.438 50.5292 209.438 51.4897ZM207.643 48.508C207.89 48.2825 208.014 47.9692 208.014 47.5683C208.014 47.1674 207.89 46.8542 207.643 46.6287C207.395 46.4032 207.056 46.2904 206.625 46.2904H204.71V48.8462H206.625C207.056 48.8462 207.395 48.7335 207.643 48.508ZM207.751 52.4169C208.006 52.1663 208.134 51.8322 208.134 51.4146C208.134 50.997 208.006 50.667 207.751 50.4248C207.503 50.1826 207.164 50.0615 206.733 50.0615H204.71V52.7802H206.733C207.164 52.7802 207.503 52.6591 207.751 52.4169Z" fill="black"/>
<path d="M220.763 53.9954H215.305V45.0752H220.763V46.2904H216.597V48.8964H220.14V50.0991H216.597V52.7802H220.763V53.9954Z" fill="black"/>
<path d="M237.12 56H235.851V53.9954H226.467V45.0752H227.76V52.7802H230.644V45.0752H231.949V52.7802H234.822V45.0752H236.126V52.7802H237.12V56Z" fill="black"/>
<path d="M248.032 53.9954H242.574V45.0752H248.032V46.2904H243.866V48.8964H247.409V50.0991H243.866V52.7802H248.032V53.9954Z" fill="black"/>
<path d="M259.781 53.9954H258.476V50.0991H255.029V53.9954H253.736V45.0752H255.029V48.8964H258.476V45.0752H259.781V53.9954Z" fill="black"/>
<path d="M272.234 53.9954H270.942V47.5182L267.123 53.9954H265.95V45.0752H267.243V51.5399L271.049 45.0752H272.234V53.9954Z" fill="black"/>
<path d="M281.008 50.4875L279.356 53.9954H277.824L279.679 50.2369C279.168 50.0532 278.765 49.7483 278.47 49.3223C278.183 48.888 278.039 48.3743 278.039 47.7813C278.039 46.9628 278.286 46.3071 278.781 45.8144C279.284 45.3216 279.942 45.0752 280.756 45.0752H284V53.9954H282.695V50.4875H281.008ZM282.695 49.2722V46.2779H280.84C280.369 46.2779 279.998 46.4115 279.727 46.6788C279.463 46.9461 279.332 47.3094 279.332 47.7688C279.332 48.2282 279.467 48.5957 279.739 48.8713C280.01 49.1386 280.377 49.2722 280.84 49.2722H282.695Z" fill="black"/>
<path fill-rule="evenodd" clip-rule="evenodd" d="M22.3218 24.3341V21.3328C22.3218 20.4298 21.6899 19.6608 20.8055 19.3694V2.04384C20.8055 1.90211 20.7255 1.30742 20.6028 0.604176C25.0296 0.185676 29.6814 1.06737 34.0217 3.55695L44.4714 9.55085C44.4176 10.7952 44.4375 12.5837 44.444 13.168C44.4451 13.2614 44.4458 13.324 44.4458 13.3488L44.528 30.5199C43.9199 30.7203 43.4856 31.2489 43.4856 31.8697V33.9331C39.4171 34.5864 36.2778 37.7114 36.0289 41.5306H54.1081C53.8592 37.7114 50.7199 34.5864 46.6514 33.9331V31.8697C46.6514 31.2489 46.217 30.7203 45.609 30.5199L45.5195 10.2234C45.5195 10.2046 45.5168 10.1789 45.5116 10.1475L53.0739 14.4852C68.1946 23.1584 68.1946 44.8414 53.0738 53.5146L34.0217 64.4428C18.9009 73.116 0 62.2745 0 44.9281V23.0716C0 11.2016 8.85058 2.37748 19.284 0.768122C19.2455 1.58387 19.2332 2.28486 19.2332 2.43334V19.3694C18.3487 19.6608 17.7169 20.4298 17.7169 21.3328V24.3341C11.7991 25.2843 7.23288 29.8298 6.87085 35.385H33.1678C32.8058 29.8298 28.2395 25.2843 22.3218 24.3341ZM26.5662 36.811C25.1897 38.775 22.7696 40.081 20.0193 40.081C17.269 40.081 14.8489 38.775 13.4725 36.811H26.5662ZM49.5694 42.5112C48.6231 43.8615 46.9593 44.7593 45.0685 44.7593C43.1776 44.7593 41.5138 43.8615 40.5675 42.5112H49.5694Z" fill="#232323"/>
<path fill-rule="evenodd" clip-rule="evenodd" d="M22.3218 24.3341V21.3328C22.3218 20.4298 21.6899 19.6608 20.8055 19.3694V2.04384C20.8055 1.90211 20.7255 1.30742 20.6028 0.604176C25.0296 0.185676 29.6814 1.06737 34.0217 3.55695L44.4714 9.55085C44.4176 10.7952 44.4375 12.5837 44.444 13.168C44.4451 13.2614 44.4458 13.324 44.4458 13.3488L44.528 30.5199C43.9199 30.7203 43.4856 31.2489 43.4856 31.8697V33.9331C39.4171 34.5864 36.2778 37.7114 36.0289 41.5306H54.1081C53.8592 37.7114 50.7199 34.5864 46.6514 33.9331V31.8697C46.6514 31.2489 46.217 30.7203 45.609 30.5199L45.5195 10.2234C45.5195 10.2046 45.5168 10.1789 45.5116 10.1475L53.0739 14.4852C68.1946 23.1584 68.1946 44.8414 53.0738 53.5146L34.0217 64.4428C18.9009 73.116 0 62.2745 0 44.9281V23.0716C0 11.2016 8.85058 2.37748 19.284 0.768122C19.2455 1.58387 19.2332 2.28486 19.2332 2.43334V19.3694C18.3487 19.6608 17.7169 20.4298 17.7169 21.3328V24.3341C11.7991 25.2843 7.23288 29.8298 6.87085 35.385H33.1678C32.8058 29.8298 28.2395 25.2843 22.3218 24.3341ZM26.5662 36.811C25.1897 38.775 22.7696 40.081 20.0193 40.081C17.269 40.081 14.8489 38.775 13.4725 36.811H26.5662ZM49.5694 42.5112C48.6231 43.8615 46.9593 44.7593 45.0685 44.7593C43.1776 44.7593 41.5138 43.8615 40.5675 42.5112H49.5694Z" fill="url(#paint0_linear_103_342)"/>
<defs>
<linearGradient id="paint0_linear_103_342" x1="-5.20715" y1="-11.0902" x2="71.4354" y2="-8.68106" gradientUnits="userSpaceOnUse">
<stop stop-color="#CEB590"/>
<stop offset="0.781455" stop-color="#F4C174"/>
<stop offset="1" stop-color="#FFC46C"/>
</linearGradient>
</defs>
</svg>
