<svg width="77" height="77" viewBox="0 0 77 77" fill="none" xmlns="http://www.w3.org/2000/svg">
<path d="M23.5668 6.44213C22.5709 2.73651 19.1838 0 15.1682 0C10.3728 0 6.47156 3.90128 6.47156 8.69664V68.3035H6.47396C6.47126 70.5094 7.28066 72.5899 8.79449 74.2202C10.4351 75.9868 12.758 77 15.1682 77H61.308L61.4046 67.9818H70.5283V6.44213H23.5668ZM15.1682 4.50901C17.4771 4.50901 19.3557 6.38754 19.3557 8.69649V60.6801C17.8543 59.8565 16.1057 59.4735 14.3063 59.6485C13.1345 59.7622 12.0037 60.1191 10.9806 60.6832V8.69664C10.9807 6.38769 12.8591 4.50901 15.1682 4.50901ZM56.8472 72.491H15.1682C13.9906 72.491 12.9005 72.0155 12.0986 71.1519C11.2977 70.2896 10.9049 69.1625 10.9928 67.979C11.1409 65.9816 12.7526 64.3299 14.7418 64.1368C14.8811 64.1233 15.0195 64.1166 15.1569 64.1166C16.8208 64.1166 18.3353 65.0889 19.0083 66.6295L19.5989 67.9815L56.8954 67.9818L56.8472 72.491ZM66.0192 63.4728L23.8647 63.4725V10.9511H66.0192V63.4728Z" fill="#232323"/>
<path d="M23.5668 6.44213C22.5709 2.73651 19.1838 0 15.1682 0C10.3728 0 6.47156 3.90128 6.47156 8.69664V68.3035H6.47396C6.47126 70.5094 7.28066 72.5899 8.79449 74.2202C10.4351 75.9868 12.758 77 15.1682 77H61.308L61.4046 67.9818H70.5283V6.44213H23.5668ZM15.1682 4.50901C17.4771 4.50901 19.3557 6.38754 19.3557 8.69649V60.6801C17.8543 59.8565 16.1057 59.4735 14.3063 59.6485C13.1345 59.7622 12.0037 60.1191 10.9806 60.6832V8.69664C10.9807 6.38769 12.8591 4.50901 15.1682 4.50901ZM56.8472 72.491H15.1682C13.9906 72.491 12.9005 72.0155 12.0986 71.1519C11.2977 70.2896 10.9049 69.1625 10.9928 67.979C11.1409 65.9816 12.7526 64.3299 14.7418 64.1368C14.8811 64.1233 15.0195 64.1166 15.1569 64.1166C16.8208 64.1166 18.3353 65.0889 19.0083 66.6295L19.5989 67.9815L56.8954 67.9818L56.8472 72.491ZM66.0192 63.4728L23.8647 63.4725V10.9511H66.0192V63.4728Z" fill="url(#paint0_linear_10_1506)"/>
<path d="M61.5421 40.6496V15.4797H28.7572V40.6496H61.5421ZM48.9213 28.0647L57.0012 22.1699V33.9594L48.9213 28.0647ZM52.3401 36.1406H37.8518L45.0959 30.8554L52.3401 36.1406ZM45.0959 25.2739L37.8518 19.9889H52.3401L45.0959 25.2739ZM41.2708 28.0647L33.1909 33.9596V22.17L41.2708 28.0647Z" fill="#232323"/>
<path d="M61.5421 40.6496V15.4797H28.7572V40.6496H61.5421ZM48.9213 28.0647L57.0012 22.1699V33.9594L48.9213 28.0647ZM52.3401 36.1406H37.8518L45.0959 30.8554L52.3401 36.1406ZM45.0959 25.2739L37.8518 19.9889H52.3401L45.0959 25.2739ZM41.2708 28.0647L33.1909 33.9596V22.17L41.2708 28.0647Z" fill="url(#paint1_linear_10_1506)"/>
<path d="M28.7572 45.1333H61.5421V49.6423H28.7572V45.1333Z" fill="#232323"/>
<path d="M28.7572 45.1333H61.5421V49.6423H28.7572V45.1333Z" fill="url(#paint2_linear_10_1506)"/>
<path d="M28.7572 54.1514H61.5421V58.6604H28.7572V54.1514Z" fill="#232323"/>
<path d="M28.7572 54.1514H61.5421V58.6604H28.7572V54.1514Z" fill="url(#paint3_linear_10_1506)"/>
<defs>
<linearGradient id="paint0_linear_10_1506" x1="1.29331" y1="-13.3269" x2="77.5293" y2="-11.2536" gradientUnits="userSpaceOnUse">
<stop stop-color="#CEB590"/>
<stop offset="0.781455" stop-color="#F4C174"/>
<stop offset="1" stop-color="#FFC46C"/>
</linearGradient>
<linearGradient id="paint1_linear_10_1506" x1="26.1069" y1="11.1234" x2="65.0834" y2="12.7831" gradientUnits="userSpaceOnUse">
<stop stop-color="#CEB590"/>
<stop offset="0.781455" stop-color="#F4C174"/>
<stop offset="1" stop-color="#FFC46C"/>
</linearGradient>
<linearGradient id="paint2_linear_10_1506" x1="26.1069" y1="44.3529" x2="63.066" y2="53.1378" gradientUnits="userSpaceOnUse">
<stop stop-color="#CEB590"/>
<stop offset="0.781455" stop-color="#F4C174"/>
<stop offset="1" stop-color="#FFC46C"/>
</linearGradient>
<linearGradient id="paint3_linear_10_1506" x1="26.1069" y1="53.371" x2="63.066" y2="62.1558" gradientUnits="userSpaceOnUse">
<stop stop-color="#CEB590"/>
<stop offset="0.781455" stop-color="#F4C174"/>
<stop offset="1" stop-color="#FFC46C"/>
</linearGradient>
</defs>
</svg>
